<svg width="367" height="458" viewBox="0 0 367 458" fill="none" xmlns="http://www.w3.org/2000/svg">
<path d="M182.965 457.26C284.014 457.26 365.93 452.277 365.93 446.131C365.93 439.984 284.014 435.002 182.965 435.002C81.9163 435.002 0 439.984 0 446.131C0 452.277 81.9163 457.26 182.965 457.26Z" fill="#CED3E6"/>
<path d="M171.558 136.212L190.039 203.794L183.445 196.202C185.883 197.504 188.713 198.501 191.833 199.196C194.953 199.904 198.364 200.308 201.926 200.485C205.488 200.674 209.202 200.636 213.005 200.485C216.807 200.321 220.685 200.043 224.626 199.702H224.652C230.462 199.209 235.578 203.517 236.071 209.327C236.538 214.873 232.61 219.774 227.216 220.658C223.148 221.303 219.018 221.922 214.786 222.414C210.541 222.907 206.196 223.273 201.699 223.374C197.202 223.475 192.54 223.299 187.715 222.604C182.902 221.909 177.912 220.646 173.036 218.549C169.916 217.197 167.693 214.646 166.682 211.652L166.442 210.944L144.273 144.486C141.784 137.02 145.814 128.936 153.292 126.447C160.758 123.959 168.842 127.988 171.331 135.467C171.407 135.694 171.495 135.972 171.558 136.212Z" fill="#EA9B7A"/>
<path d="M178.67 381.201C178.392 381.201 178.114 381.151 177.836 381.05L81.023 346.147C79.7598 345.692 79.1029 344.29 79.5577 343.027C80.0125 341.764 81.4146 341.094 82.6779 341.561L179.491 376.464C180.754 376.919 181.424 378.321 180.957 379.584C180.616 380.582 179.668 381.201 178.67 381.201Z" fill="#C77E2E"/>
<path d="M77.8272 381.201C76.8292 381.201 75.8944 380.582 75.5281 379.585C75.0733 378.321 75.7302 376.919 76.9934 376.452L174.956 340.968C176.22 340.513 177.622 341.17 178.089 342.433C178.544 343.696 177.887 345.099 176.624 345.566L78.6609 381.05C78.383 381.151 78.1051 381.201 77.8272 381.201Z" fill="#C77E2E"/>
<path d="M187.285 443.579C185.226 443.579 183.432 442.051 183.142 439.954L165.659 309.375H92.4805L75.2627 439.954C74.9596 442.24 72.8626 443.857 70.5762 443.554C68.2898 443.251 66.6728 441.154 66.976 438.867L84.6737 304.675C84.9517 302.591 86.7202 301.037 88.8171 301.037H169.322C171.419 301.037 173.188 302.591 173.466 304.663L191.441 438.855C191.744 441.141 190.14 443.251 187.854 443.554C187.652 443.567 187.475 443.579 187.285 443.579Z" fill="#FAAF3A"/>
<path d="M146.003 305.206H93.7185C77.1576 305.206 59.422 296.136 56.8703 279.777C53.4722 257.886 52.6259 236.701 53.5733 217.248C54.647 195.255 65.157 174.791 82.4379 161.148C82.4379 161.148 92.8847 206.662 79.7472 269.482C84.7749 293.332 146.003 305.206 146.003 305.206Z" fill="#FAAF3A"/>
<path d="M135.102 38.2743C135.102 38.2743 128.887 23.2924 112.427 26.1221C100.931 28.0927 96.0302 42.4176 96.6997 64.5493C97.685 96.7488 86.796 116.152 86.796 116.152L101.247 119.436C101.26 119.424 138.058 64.2209 135.102 38.2743Z" fill="#39393B"/>
<path d="M266.957 387.631H243.6C243.6 387.631 238.193 361.71 236.387 347.183C234.568 332.643 233.633 298.195 233.633 298.195C233.633 298.195 215.026 304.246 176.068 301.959C89.752 296.919 122.482 233.505 122.482 233.505C125.4 237.535 143.262 234.743 155.477 236.663C192.957 240.263 225.447 254.967 244.952 263.38C249.651 265.401 253.819 267.549 257.483 269.81C262.182 272.703 265.125 281.508 266.906 293.066C272.225 327.817 266.957 387.631 266.957 387.631Z" fill="#39393B"/>
<path d="M246.505 375.138C246.114 375.138 245.773 374.86 245.684 374.468C242.311 357.794 241.187 337.039 240.278 320.364C239.52 306.532 238.812 293.47 237.031 291.904C235.591 290.628 229.616 291.626 222.062 292.877C207.017 295.378 184.279 299.142 159.217 293.319C145.561 290.135 135.519 283.503 129.379 273.6C118.781 256.521 123.619 235.337 123.67 235.122C123.771 234.667 124.225 234.389 124.68 234.503C125.135 234.604 125.413 235.059 125.299 235.514C125.249 235.716 120.587 256.243 130.819 272.728C136.719 282.24 146.408 288.62 159.608 291.689C184.355 297.449 206.891 293.71 221.809 291.234C230.74 289.756 236.134 288.86 238.168 290.653C240.366 292.599 240.985 302.149 241.97 320.276C242.88 336.9 244.004 357.579 247.352 374.14C247.44 374.595 247.15 375.037 246.695 375.125C246.606 375.138 246.556 375.138 246.505 375.138Z" fill="#585859"/>
<path d="M267.399 375.58H267.386L241.414 375.024C240.947 375.011 240.581 374.632 240.593 374.165C240.606 373.698 240.985 373.331 241.452 373.344L267.424 373.9C267.892 373.912 268.258 374.291 268.245 374.759C268.233 375.213 267.854 375.58 267.399 375.58Z" fill="#585859"/>
<path d="M266.313 417.544H249.828L246.657 398.217L244.914 387.631H265.39L265.719 398.217L266.313 417.544Z" fill="#EA9B7A"/>
<path d="M266.313 417.544H249.828L247.465 403.156L246.657 398.217H265.719L265.883 403.333L266.313 417.544Z" fill="#FAAF3A"/>
<path d="M265.883 403.333L247.465 403.156L246.657 398.217H265.719L265.883 403.333Z" fill="#C77E2E"/>
<path d="M306.988 443.579H244.648C244.181 442.733 243.928 441.545 243.827 440.118C243.436 434.838 245.116 426.425 245.937 421.119C246.038 420.5 246.126 419.919 246.189 419.401C246.303 418.517 246.379 417.771 246.379 417.228C246.379 412.895 250.207 413.641 250.207 413.641C256.51 419.83 263.66 410.546 267.828 413.59C267.828 413.59 267.993 413.717 268.384 414.007C268.738 414.285 269.269 414.714 270.001 415.333C271.062 416.218 272.553 417.506 274.574 419.325C279.526 423.784 287.939 426.715 295.101 429.709C296.011 430.088 296.857 430.479 297.653 430.858C298.247 431.149 298.815 431.44 299.346 431.717C305.207 434.875 307.064 437.907 307.494 440.105C307.911 442.227 306.988 443.579 306.988 443.579Z" fill="#0875F7"/>
<path d="M299.359 431.73C297.754 433.006 294.179 435.57 291.312 435.57C291.185 435.57 291.059 435.57 290.933 435.557C288.912 435.393 281.484 431.743 275.433 428.42C271.972 426.513 268.801 424.643 266.527 423.14C262.801 420.677 262.144 419.742 262.005 419.085C261.462 416.622 265.529 414.916 268.384 414.02C268.738 414.297 269.269 414.727 270.001 415.346C266.464 416.306 263.546 417.822 263.685 418.693C264.039 419.426 267.727 422.23 276.545 427.069C283.278 430.757 289.657 433.726 291.072 433.852C292.992 434.004 295.809 432.26 297.653 430.884C298.26 431.161 298.828 431.452 299.359 431.73Z" fill="#084FC7"/>
<path d="M306.988 443.579H244.648C244.181 442.733 243.928 441.545 243.827 440.118H307.506C307.911 442.227 306.988 443.579 306.988 443.579Z" fill="#084FC7"/>
<path d="M251.002 443.579H249.145C250.99 441.469 252.72 438.223 252.493 433.599C252.19 427.435 248.501 423.292 245.924 421.119C246.025 420.5 246.114 419.919 246.177 419.401C248.943 421.51 253.605 426.146 253.971 433.524C254.211 437.945 252.758 441.242 251.002 443.579Z" fill="#084FC7"/>
<path d="M273.526 423.014C273.071 423.014 272.641 422.698 272.528 422.231C272.389 421.675 272.73 421.119 273.273 420.98L277.164 420.007C277.72 419.868 278.275 420.209 278.414 420.753C278.553 421.308 278.212 421.864 277.669 422.003L273.778 422.976C273.69 423.001 273.601 423.014 273.526 423.014Z" fill="white"/>
<path d="M269.66 419.78C269.205 419.78 268.776 419.464 268.662 418.997C268.523 418.441 268.864 417.885 269.407 417.746L273.298 416.774C273.854 416.635 274.41 416.976 274.549 417.519C274.688 418.075 274.347 418.63 273.804 418.757L269.913 419.729C269.824 419.767 269.736 419.78 269.66 419.78Z" fill="white"/>
<path d="M277.416 425.275C276.962 425.275 276.532 424.959 276.418 424.492C276.279 423.936 276.621 423.38 277.164 423.254L281.054 422.281C281.61 422.142 282.166 422.483 282.305 423.026C282.444 423.582 282.103 424.138 281.56 424.277L277.669 425.25C277.581 425.275 277.505 425.275 277.416 425.275Z" fill="white"/>
<path d="M281.307 427.46C280.84 427.46 280.423 427.144 280.309 426.677C280.17 426.121 280.511 425.565 281.054 425.426L284.945 424.454C285.501 424.315 286.057 424.656 286.196 425.199C286.335 425.755 285.994 426.311 285.45 426.437L281.56 427.41C281.484 427.448 281.395 427.46 281.307 427.46Z" fill="white"/>
<path d="M285.564 429.469C285.109 429.469 284.68 429.153 284.566 428.686C284.427 428.13 284.768 427.574 285.311 427.448L289.202 426.475C289.758 426.336 290.314 426.677 290.453 427.22C290.592 427.776 290.251 428.332 289.707 428.471L285.817 429.443C285.728 429.456 285.64 429.469 285.564 429.469Z" fill="white"/>
<path d="M290.162 431.187C289.707 431.187 289.278 430.871 289.164 430.404C289.025 429.848 289.366 429.292 289.91 429.153L293.8 428.18C294.356 428.041 294.912 428.382 295.051 428.926C295.19 429.481 294.849 430.037 294.306 430.164L290.415 431.136C290.326 431.174 290.251 431.187 290.162 431.187Z" fill="white"/>
<path d="M79.2546 213.395C79.2546 213.395 78.5219 218.435 85.2675 219.85L155.604 222.199C155.604 222.199 160.353 219.812 159.494 213.925C159.494 213.913 129.796 197.225 79.2546 213.395Z" fill="#084FC7"/>
<path d="M156.564 236.651C120.057 256.736 80.1894 240.567 80.1894 240.567C82.1348 235.248 83.5875 229.248 84.6359 223.791C85.8486 217.437 86.5308 211.828 86.8466 208.885C102.372 208.039 140.445 206.409 155.364 209.946L155.477 215.921L156.564 236.651Z" fill="#EA9B7A"/>
<path d="M129.594 227.025C129.329 228.907 128.47 230.347 127.699 230.234C126.916 230.12 126.512 228.503 126.777 226.621C127.042 224.739 127.901 223.298 128.672 223.412C129.455 223.526 129.859 225.143 129.594 227.025Z" fill="#D96C63"/>
<path d="M155.465 215.921C139.915 214.974 109.332 214.645 84.6233 223.779C85.836 217.425 86.5181 211.816 86.8339 208.873C102.359 208.026 140.432 206.397 155.351 209.934L155.465 215.921Z" fill="#D96C63"/>
<path d="M172.809 187.031C172.657 187.486 172.48 187.903 172.278 188.294C172.203 188.446 172.127 188.598 172.051 188.737C170.093 192.362 167.074 195.507 164.535 197.743C164.004 198.211 163.499 198.628 163.032 199.007C162.097 199.765 161.301 200.358 160.758 200.75C160.252 201.104 159.962 201.293 159.962 201.293C159.962 201.331 159.962 201.356 159.949 201.407C159.924 201.672 159.899 201.963 159.874 202.266C159.785 203.415 159.709 204.78 159.659 206.346C159.608 207.597 159.57 208.973 159.545 210.464C159.532 211.563 159.507 212.713 159.495 213.9C138.866 204.679 96.3713 210.502 79.2546 213.382C79.5705 211.904 79.8484 210.451 80.1136 209.037C81.3263 202.506 82.0085 196.632 82.2737 191.364C82.678 183.532 81.9958 171.759 80.3284 159.594C80.2273 158.798 80.1136 158.015 80 157.232C79.9242 156.714 79.8484 156.209 79.7599 155.691C79.1789 151.876 78.4967 148.048 77.7261 144.334C74.3533 128.14 76.7156 111.149 93.1375 109.141C94.3249 108.989 95.4997 108.863 96.6492 108.737C104.38 107.916 110.747 107.625 112.515 107.562C112.844 107.549 113.008 107.549 113.008 107.549L144.74 116.771L147.759 117.642C149.49 118.198 151.094 118.741 152.585 119.272C153.216 119.499 153.835 119.727 154.416 119.942C155.958 120.523 157.347 121.078 158.623 121.647C161.162 122.771 163.171 123.87 164.762 124.994C171.723 129.934 170.649 135.517 170.472 146.545C170.472 146.596 170.472 146.646 170.472 146.697C170.472 146.836 170.472 146.974 170.472 147.126C170.472 147.189 170.472 147.252 170.472 147.316C170.472 147.77 170.472 148.212 170.472 148.667C170.485 150.095 170.535 151.509 170.624 152.924C170.737 155.009 170.927 157.08 171.154 159.101C171.243 159.91 171.331 160.718 171.432 161.527C171.52 162.285 171.621 163.03 171.723 163.775C172.96 173.426 174.54 181.89 172.809 187.031Z" fill="#0875F7"/>
<path d="M170.459 146.697C170.459 146.835 170.459 146.974 170.459 147.126C170.459 147.189 170.459 147.252 170.459 147.316C170.459 147.77 170.459 148.212 170.459 148.667L163.789 152.848C163.587 152.975 163.36 153.013 163.133 152.975C162.88 152.937 162.653 152.785 162.501 152.558C162.223 152.116 162.362 151.547 162.791 151.269L169.866 146.835C170.042 146.722 170.257 146.684 170.459 146.697Z" fill="#084FC7"/>
<path d="M126.499 182.42C126.246 182.42 125.994 182.319 125.804 182.117C125.463 181.738 125.489 181.145 125.867 180.803L132.07 175.22C132.449 174.879 133.043 174.904 133.384 175.283C133.725 175.662 133.699 176.256 133.321 176.597L127.118 182.18C126.941 182.332 126.714 182.42 126.499 182.42Z" fill="#084FC7"/>
<path d="M171.697 163.775L167.453 167.603C167.276 167.767 167.049 167.843 166.834 167.843C166.581 167.843 166.329 167.742 166.139 167.54C165.798 167.161 165.823 166.567 166.202 166.226L171.407 161.539C171.495 162.285 171.596 163.03 171.697 163.775Z" fill="#084FC7"/>
<path d="M113.917 159.96C113.778 159.745 113.715 159.48 113.778 159.215C113.892 158.71 114.397 158.406 114.903 158.52L123.025 160.44C123.531 160.554 123.834 161.059 123.72 161.565C123.606 162.07 123.101 162.373 122.596 162.259L114.473 160.339C114.233 160.289 114.044 160.15 113.917 159.96Z" fill="#084FC7"/>
<path d="M84.9265 175.902C84.6738 175.902 84.4212 175.801 84.2317 175.599C83.8906 175.22 83.9159 174.626 84.2949 174.285L90.4973 168.702C90.8762 168.361 91.47 168.386 91.811 168.765C92.1521 169.144 92.1268 169.738 91.7479 170.079L85.5455 175.662C85.3686 175.827 85.1539 175.902 84.9265 175.902Z" fill="#084FC7"/>
<path d="M157.132 174.576C157.208 174.336 157.398 174.121 157.638 174.02C158.105 173.818 158.661 174.033 158.863 174.5L162.198 182.155C162.4 182.623 162.185 183.178 161.718 183.38C161.25 183.583 160.695 183.368 160.492 182.9L157.158 175.245C157.069 175.018 157.069 174.778 157.132 174.576Z" fill="#084FC7"/>
<path d="M172.809 187.031C172.657 187.486 172.48 187.903 172.278 188.294C172.203 188.446 172.127 188.598 172.051 188.737L167.516 187.309C167.289 187.233 167.112 187.082 166.998 186.892C166.872 186.678 166.821 186.4 166.91 186.147C167.061 185.654 167.592 185.389 168.072 185.541L172.809 187.031Z" fill="#084FC7"/>
<path d="M147.191 187.701C147.443 187.676 147.709 187.751 147.911 187.941C148.29 188.282 148.315 188.876 147.974 189.255L142.365 195.432C142.024 195.811 141.43 195.836 141.051 195.495C140.672 195.154 140.647 194.56 140.988 194.181L146.597 188.004C146.761 187.827 146.976 187.726 147.191 187.701Z" fill="#084FC7"/>
<path d="M143.894 173.452C143.641 173.414 143.414 173.262 143.262 173.035C142.984 172.605 143.123 172.024 143.553 171.746L150.627 167.312C151.056 167.034 151.637 167.173 151.915 167.603C152.193 168.032 152.054 168.613 151.625 168.891L144.551 173.325C144.348 173.451 144.108 173.489 143.894 173.452Z" fill="#084FC7"/>
<path d="M148.403 146.57C148.568 146.76 148.669 147.012 148.631 147.29C148.58 147.796 148.113 148.175 147.608 148.111L139.308 147.202C138.803 147.151 138.424 146.684 138.487 146.179C138.538 145.673 139.005 145.294 139.51 145.358L147.81 146.267C148.037 146.292 148.252 146.406 148.403 146.57Z" fill="#084FC7"/>
<path d="M136.34 128.569C136.403 128.317 136.567 128.102 136.807 127.976C137.262 127.736 137.83 127.9 138.07 128.355L142.024 135.707C142.264 136.161 142.1 136.73 141.645 136.97C141.19 137.21 140.622 137.046 140.382 136.591L136.428 129.239C136.302 129.024 136.276 128.784 136.34 128.569Z" fill="#084FC7"/>
<path d="M164.547 197.756C164.017 198.224 163.512 198.64 163.044 199.019L161.958 196.24C161.869 196.013 161.869 195.785 161.958 195.571C162.046 195.331 162.236 195.129 162.488 195.028C162.968 194.838 163.512 195.078 163.701 195.558L164.547 197.756Z" fill="#084FC7"/>
<path d="M88.2488 183.608C88.1224 183.381 88.0972 183.115 88.1982 182.85C88.3751 182.37 88.9056 182.117 89.3857 182.294L97.2429 185.124C97.7229 185.301 97.9756 185.831 97.7987 186.311C97.6219 186.791 97.0913 187.044 96.6113 186.867L88.754 184.038C88.5267 183.974 88.3498 183.81 88.2488 183.608Z" fill="#084FC7"/>
<path d="M92.0889 194.232C92.3416 194.232 92.5942 194.345 92.7837 194.547C93.1248 194.926 93.0869 195.52 92.7079 195.861L86.455 201.394C86.076 201.735 85.4823 201.697 85.1412 201.318C84.8001 200.939 84.838 200.346 85.217 200.005L91.47 194.472C91.6468 194.307 91.8742 194.232 92.0889 194.232Z" fill="#084FC7"/>
<path d="M103.42 203.011C103.572 203.213 103.66 203.478 103.61 203.744C103.521 204.249 103.041 204.59 102.536 204.502L94.3122 203.099C93.807 203.011 93.4659 202.531 93.5543 202.026C93.6427 201.52 94.1228 201.179 94.628 201.268L102.852 202.67C103.079 202.708 103.281 202.834 103.42 203.011Z" fill="#084FC7"/>
<path d="M110.305 124.868C110.241 124.628 110.267 124.35 110.418 124.123C110.696 123.693 111.277 123.567 111.707 123.845L118.718 128.367C119.147 128.645 119.274 129.226 118.996 129.656C118.718 130.085 118.137 130.212 117.707 129.934L110.696 125.411C110.494 125.272 110.355 125.083 110.305 124.868Z" fill="#084FC7"/>
<path d="M158.155 130.199C158.383 130.073 158.648 130.047 158.913 130.136C159.393 130.313 159.646 130.843 159.482 131.323L156.69 139.193C156.513 139.673 155.983 139.926 155.503 139.761C155.023 139.585 154.77 139.054 154.934 138.574L157.726 130.704C157.802 130.489 157.966 130.313 158.155 130.199Z" fill="#084FC7"/>
<path d="M154.404 119.954L150.096 125.487C149.78 125.891 149.199 125.967 148.795 125.651C148.391 125.335 148.315 124.754 148.631 124.35L152.572 119.297C153.204 119.499 153.823 119.727 154.404 119.954Z" fill="#084FC7"/>
<path d="M112.25 196.291C112.338 196.556 112.566 196.745 112.818 196.796C112.945 196.821 113.084 196.821 113.21 196.771C113.349 196.72 126.853 192.349 141.051 198.236C148.264 201.23 154.682 202.367 159.874 202.266C159.899 201.963 159.924 201.685 159.949 201.407C159.949 201.369 159.962 201.331 159.962 201.306C159.962 201.306 160.252 201.116 160.758 200.763C155.654 201.015 149.123 199.929 141.633 196.834C126.891 190.72 113.298 195.141 112.73 195.331C112.338 195.47 112.124 195.899 112.25 196.291Z" fill="#084FC7"/>
<path d="M144.727 116.771C142.946 119.525 139.283 122.645 131.855 122.114C121.61 121.369 114.865 111.592 112.515 107.575C112.831 107.562 113.008 107.562 113.008 107.562L144.727 116.771Z" fill="#084FC7"/>
<path d="M133.838 134.911C134.142 134.974 134.445 135.012 134.748 135.037C137.578 135.265 139.877 134.443 141.569 132.599C146.496 127.218 144.475 114.939 144.386 114.421C144.311 114.005 143.919 113.727 143.515 113.802C143.098 113.878 142.82 114.27 142.896 114.674C142.921 114.8 144.879 126.738 140.458 131.576C139.081 133.079 137.249 133.723 134.887 133.534C124.958 132.738 113.829 107.512 113.715 107.259C113.551 106.88 113.096 106.703 112.717 106.867C112.338 107.032 112.162 107.486 112.326 107.865C112.755 108.914 123.316 132.776 133.838 134.911Z" fill="white"/>
<path d="M164.762 124.994C164.105 132.271 165.899 144.284 170.598 152.924C170.485 151.067 170.434 149.185 170.459 147.316C170.459 147.252 170.459 147.189 170.459 147.126C170.459 146.937 170.472 146.747 170.472 146.558C170.636 135.53 171.71 129.934 164.762 124.994Z" fill="#EA9B7A"/>
<path d="M106.389 137.803C102.751 151.85 89.4362 163.118 80.341 159.607C80.2273 158.823 80.1262 158.028 80.0125 157.244C79.9367 156.726 79.8609 156.221 79.7725 155.703C79.1914 151.888 78.5093 148.061 77.7387 144.347C74.3659 128.152 76.7408 111.162 93.15 109.153C94.3375 109.002 95.5123 108.876 96.6618 108.749C104.86 112.248 110.583 121.634 106.389 137.803Z" fill="#EA9B7A"/>
<path d="M108.258 127.091L129.581 205.083L121.977 196.316C124.794 197.807 128.053 198.969 131.666 199.777C135.266 200.586 139.207 201.053 143.313 201.268C147.431 201.483 151.713 201.445 156.096 201.268C160.48 201.091 164.964 200.763 169.512 200.371H169.537C176.245 199.803 182.144 204.767 182.712 211.475C183.256 217.867 178.721 223.538 172.48 224.549C167.794 225.294 163.019 226.002 158.13 226.57C153.242 227.139 148.226 227.556 143.022 227.682C137.83 227.796 132.449 227.606 126.891 226.798C121.345 225.989 115.585 224.549 109.951 222.111C106.351 220.557 103.786 217.601 102.624 214.153L102.359 213.344L76.766 136.641C73.8859 128.026 78.5472 118.704 87.1623 115.824C95.7775 112.943 105.1 117.605 107.98 126.22C108.094 126.498 108.182 126.826 108.258 127.091Z" fill="#EA9B7A"/>
<path d="M117.808 202.594C117.593 202.594 117.379 202.48 117.265 202.278C117.088 201.975 117.202 201.596 117.505 201.419C117.707 201.306 122.368 198.678 127.244 198.299C127.598 198.274 127.901 198.527 127.927 198.88C127.952 199.234 127.699 199.537 127.345 199.562C122.76 199.916 118.174 202.493 118.137 202.518C118.023 202.569 117.909 202.594 117.808 202.594Z" fill="#D96C63"/>
<path d="M125.564 199.777C125.451 199.777 125.337 199.752 125.236 199.689C122.293 197.907 118.73 197.63 118.692 197.63C118.339 197.604 118.086 197.301 118.111 196.96C118.137 196.606 118.427 196.354 118.781 196.379C118.932 196.392 122.684 196.669 125.88 198.615C126.183 198.792 126.272 199.183 126.095 199.486C125.981 199.663 125.766 199.777 125.564 199.777Z" fill="#D96C63"/>
<path d="M144.576 158.672C154.012 160.579 158.143 150.827 158.181 150.726C158.345 150.335 158.155 149.892 157.764 149.741C157.372 149.577 156.93 149.766 156.779 150.158C156.627 150.524 153.065 158.849 144.879 157.194C136.276 155.451 120.234 138.536 120.082 138.359C119.791 138.056 119.311 138.043 119.008 138.334C118.705 138.625 118.692 139.105 118.983 139.408C119.64 140.103 135.519 156.828 144.576 158.672Z" fill="#084FC7"/>
<path d="M129.746 97.2415C129.746 97.2415 114.6 94.3866 110.33 79.1016C106.262 64.5493 109.395 56.9952 113.627 49.1379C116.81 43.2134 126.916 35.2172 141.077 38.0847C155.376 40.9775 166.076 48.3295 167.655 60.0901C170.598 82.0954 152.85 108.939 129.746 97.2415Z" fill="#39393B"/>
<path d="M111.037 81.4637C110.759 81.4637 110.494 81.3248 110.355 81.0595C110.077 80.5795 103.711 69.122 109.004 54.0392C112.313 44.6155 118.819 40.409 123.707 38.5268C128.988 36.493 133.422 36.6951 133.611 36.6951C134.041 36.7204 134.382 37.0867 134.356 37.5288C134.331 37.9583 133.977 38.2994 133.535 38.2742C133.497 38.2742 129.19 38.0973 124.213 40.0174C117.593 42.5817 112.983 47.4704 110.494 54.5571C105.454 68.9326 111.669 80.1626 111.732 80.2763C111.947 80.6553 111.82 81.1353 111.442 81.35C111.303 81.4258 111.176 81.4637 111.037 81.4637Z" fill="#FAAF3A"/>
<path d="M159.116 81.704C159.116 81.704 164.042 77.8133 165.343 82.9672C166.644 88.1212 162.981 97.2795 157.246 94.5004L159.116 81.704Z" fill="#D96C63"/>
<path d="M154.303 91.1781C151.852 91.9865 149.692 94.1593 149.136 96.8499C148.328 100.867 150.93 104.783 154.934 105.604C158.951 106.413 162.867 103.81 163.688 99.8059C164.295 96.7994 162.994 93.8435 160.606 92.2139C159.81 91.6581 158.888 91.2665 157.878 91.0644C157.852 91.0644 157.827 91.0518 157.802 91.0518C157.663 91.557 157.713 91.9613 158.004 92.2771C158.812 92.4918 159.545 92.8582 160.189 93.3382C162.046 94.753 163.044 97.1405 162.552 99.5785C161.869 102.964 158.547 105.162 155.162 104.48C151.776 103.798 149.578 100.475 150.26 97.09C150.766 94.6267 152.585 92.8834 154.871 92.3276L154.303 91.1781Z" fill="#FAAF3A"/>
<path d="M144.184 103.798L142.125 116.708C142.125 116.708 132.462 126.574 114.814 108.876C119.551 105.351 121.358 97.1658 120.802 91.8855C120.802 91.8855 122.192 92.7192 124.339 94.6646C124.756 95.0436 125.299 95.3341 125.817 95.7004C130.478 98.8585 137.628 102.989 144.184 103.798Z" fill="#EA9B7A"/>
<path d="M144.184 103.798L143.212 109.912C137.919 107.549 128.558 102.509 124.339 94.6519C124.794 94.9803 125.299 95.3214 125.817 95.6877C130.478 98.8584 137.628 102.989 144.184 103.798Z" fill="#39393B"/>
<path d="M163.89 78.5964C163.613 79.9607 163.36 81.2618 163.095 82.4998C162.817 83.8388 162.551 85.102 162.286 86.2894C160.328 95.2204 158.724 100.008 156.122 101.802C142.946 110.859 121.509 92.5171 120.815 91.9234C120.802 91.9108 120.802 91.9108 120.802 91.9108C120.789 90.8623 120.789 89.8138 120.802 88.7906C120.966 80.0997 122.444 72.2929 124.794 65.0799C125.969 57.1974 132.083 50.8813 139.952 49.6939C148.113 48.4686 154.252 53.193 158.092 55.2773C163.89 58.4354 166.164 67.2148 163.89 78.5964Z" fill="#EA9B7A"/>
<path d="M125.249 56.9699C125.249 56.9699 134.47 39.2343 152.863 44.1861C171.255 49.1379 172.228 57.6773 172.556 61.947C172.885 66.2167 163.032 58.65 163.032 58.65C163.032 58.65 162.69 67.1894 159.406 64.5619C155.376 61.328 150.879 54.3677 150.879 54.3677C150.879 54.3677 139.927 65.1303 129.518 62.2249C123.594 60.5827 125.249 56.9699 125.249 56.9699Z" fill="#39393B"/>
<path d="M147.835 95.991C145.447 95.991 143.805 94.3362 143.729 94.2477C143.477 93.9825 143.477 93.5656 143.742 93.3129C144.007 93.0603 144.412 93.0603 144.664 93.3256C144.753 93.414 146.648 95.2962 149.149 94.4372C149.49 94.3235 149.869 94.5004 149.982 94.8414C150.096 95.1825 149.919 95.5615 149.578 95.6752C148.972 95.9025 148.391 95.991 147.835 95.991Z" fill="#D96C63"/>
<path d="M142.34 85.2537C142.34 85.2537 151.208 87.8812 155.806 87.8812C155.806 87.8812 153.507 94.4499 146.938 92.1509C141.822 90.3571 142.34 85.2537 142.34 85.2537Z" fill="white"/>
<path d="M158.8 66.7853C158.8 66.7853 156.501 66.5453 156.867 68.7812C157.246 71.0171 162.236 69.6528 164.712 74.1246C164.712 74.1246 167.099 69.4381 158.8 66.7853Z" fill="#39393B"/>
<path d="M148.555 64.7136C148.555 64.7136 150.766 65.3957 149.553 67.3032C148.34 69.2106 144.273 66.0147 140.256 69.1727C140.256 69.1727 139.889 63.9304 148.555 64.7136Z" fill="#39393B"/>
<path d="M144.563 80.7186C144.348 81.7671 142.011 82.1839 139.321 81.6407C136.643 81.0975 134.647 79.8091 134.862 78.748C135.076 77.6995 137.413 77.2826 140.104 77.8258C142.782 78.369 144.778 79.6701 144.563 80.7186Z" fill="#D96C63"/>
<path d="M170.737 81.4134L163.575 80.1881C163.537 80.4913 163.461 80.7945 163.398 81.085C163.385 81.1355 163.373 81.1861 163.347 81.2366L170.56 82.4619C170.851 82.5124 171.129 82.3103 171.179 82.0198C171.23 81.7419 171.04 81.464 170.737 81.4134Z" fill="white"/>
<path d="M151.612 75.2993C151.612 74.933 151.599 74.5667 151.549 74.213C151.309 72.2676 150.45 70.4738 149.136 69.0843C147.923 67.8084 146.344 66.8736 144.513 66.4694C144.487 66.4568 144.449 66.4568 144.424 66.4441C140.23 65.5851 136.1 67.7832 134.394 71.5223C134.243 71.8507 134.116 72.1792 134.003 72.5202C133.902 72.8234 133.826 73.1392 133.75 73.455C133.27 75.8046 133.737 78.1289 134.912 80.0238C135.316 80.668 135.796 81.2617 136.34 81.7797C137.527 82.9292 139.03 83.7629 140.761 84.1166C143.679 84.723 146.546 83.8387 148.606 81.9944C149.995 80.7564 151.018 79.0637 151.422 77.1057C151.422 77.0931 151.422 77.0931 151.422 77.0805C151.549 76.4868 151.612 75.8931 151.612 75.2993ZM140.988 83.0681C140.938 83.0555 140.9 83.0555 140.862 83.0429C138.601 82.5376 136.769 81.0975 135.695 79.2153C134.773 77.5858 134.407 75.6404 134.811 73.6698C134.9 73.2655 135.013 72.8739 135.152 72.495C135.165 72.4697 135.177 72.4445 135.177 72.4192C136.302 69.5011 139.043 67.5179 142.125 67.341C142.807 67.3031 143.502 67.341 144.209 67.4926C145.725 67.8084 147.039 68.5285 148.088 69.5264C150.008 71.3581 150.968 74.1119 150.399 76.891C149.49 81.1859 145.283 83.965 140.988 83.0681Z" fill="white"/>
<path d="M167.668 71.6106C167.428 71.4843 167.175 71.3706 166.91 71.2569C166.606 71.1306 166.291 71.0295 165.975 70.9285C165.747 70.8653 165.533 70.8022 165.293 70.7643C164.863 70.6758 164.446 70.6253 164.029 70.6001C163.524 70.5622 163.019 70.5748 162.526 70.6379C161.149 70.7895 159.848 71.2443 158.699 71.9643C157.435 72.7475 156.362 73.8465 155.629 75.1729C155.427 75.514 155.263 75.8677 155.111 76.2214C155.098 76.2467 155.098 76.2593 155.086 76.2846C154.896 76.7646 154.745 77.2699 154.631 77.7878C153.911 81.2743 155.313 84.7102 157.953 86.7567C158.812 87.4262 159.798 87.9441 160.884 88.2599C161.048 88.3104 161.212 88.361 161.389 88.3862C161.478 88.4115 161.554 88.4241 161.642 88.4494C162.514 88.6262 163.385 88.6768 164.232 88.601C164.371 88.5883 164.509 88.5757 164.636 88.5631C165.002 88.5125 165.368 88.4494 165.735 88.3483C166.404 88.1715 167.061 87.9188 167.668 87.603C169.979 86.3903 171.748 84.1923 172.316 81.4385C173.137 77.3962 171.129 73.4297 167.668 71.6106ZM171.255 81.2111C171.217 81.388 171.179 81.5522 171.129 81.7164C171.066 81.9564 170.99 82.1838 170.901 82.4238C170.27 84.1039 169.108 85.4682 167.642 86.3651C167.112 86.6935 166.531 86.9588 165.924 87.1609C165.545 87.2872 165.166 87.3756 164.762 87.4388C164.648 87.4641 164.535 87.4767 164.421 87.4893C163.587 87.5904 162.716 87.5651 161.844 87.3883C161.768 87.3756 161.68 87.3504 161.604 87.3377C161.554 87.3251 161.503 87.3125 161.465 87.2999C160.189 86.9714 159.052 86.3398 158.13 85.4934C157.991 85.3671 157.865 85.2408 157.739 85.1145C155.983 83.2954 155.124 80.6553 155.667 77.9899C155.793 77.3962 155.983 76.8151 156.223 76.2846C157.019 74.5413 158.408 73.1897 160.088 72.3938C161.124 71.9012 162.274 71.6359 163.461 71.6359C163.65 71.6359 163.84 71.6485 164.042 71.6612C164.383 71.6864 164.724 71.7369 165.065 71.8001C165.318 71.8506 165.558 71.9138 165.798 71.9896C166.126 72.0906 166.442 72.217 166.758 72.3559C166.998 72.4696 167.238 72.5959 167.478 72.7223C170.346 74.4023 171.962 77.7751 171.255 81.2111Z" fill="white"/>
<path d="M122.975 73.1516C122.912 73.139 122.848 73.1137 122.798 73.0758C122.545 72.9116 122.482 72.5832 122.634 72.3432C126.221 66.7345 134.849 71.7747 134.925 71.8253C135.177 71.9768 135.266 72.3053 135.114 72.5579C134.963 72.8106 134.634 72.899 134.382 72.7474C134.306 72.6969 126.562 68.1872 123.531 72.9243C123.417 73.1011 123.189 73.1895 122.975 73.1516Z" fill="white"/>
<path d="M155.49 76.5248C155.351 76.4995 155.237 76.4111 155.149 76.2974C153.999 74.5289 151.549 75.3247 151.524 75.3247C151.246 75.4131 150.942 75.2615 150.854 74.9836C150.766 74.7057 150.917 74.4025 151.195 74.3141C152.319 73.9352 154.783 73.7457 156.059 75.7163C156.223 75.9689 156.147 76.2974 155.894 76.449C155.768 76.5247 155.629 76.55 155.49 76.5248Z" fill="white"/>
<g opacity="0.8">
<g opacity="0.8">
<g opacity="0.8">
<g opacity="0.8">
<g opacity="0.8">
<g opacity="0.8">
<g opacity="0.8">
<path opacity="0.8" d="M163.095 82.4997C162.817 83.8387 162.551 85.1019 162.286 86.2894C159.848 85.6957 158.092 84.4956 158.294 83.4976C158.509 82.5123 160.606 82.0828 163.095 82.4997Z" fill="#D96C63"/>
</g>
</g>
</g>
</g>
</g>
</g>
</g>
<path d="M146.445 75.4255C146.155 76.8782 145.258 77.9141 144.45 77.7499C143.641 77.5856 143.224 76.2845 143.515 74.8318C143.805 73.3791 144.702 72.3433 145.511 72.5075C146.319 72.6717 146.736 73.9728 146.445 75.4255Z" fill="#39393B"/>
<path d="M160.77 78.3312C160.48 79.7839 159.583 80.8197 158.774 80.6555C157.966 80.4913 157.549 79.1901 157.84 77.7374C158.13 76.2847 159.027 75.2489 159.836 75.4131C160.644 75.5773 161.061 76.8784 160.77 78.3312Z" fill="#39393B"/>
<path d="M153.368 82.2216C154.063 82.3605 154.555 82.3353 154.593 82.3353C154.757 82.3226 154.922 82.2469 155.035 82.1205C155.149 81.9942 155.187 81.8174 155.174 81.6531L154.252 74.8949C154.202 74.5665 153.898 74.3264 153.57 74.377C153.242 74.4275 153.002 74.7307 153.052 75.0591L153.873 81.0847C153.267 80.9963 152.357 80.7436 151.536 80.0615C151.284 79.8467 150.892 79.8846 150.677 80.1373C150.462 80.3899 150.5 80.7815 150.753 80.9963C151.65 81.7289 152.623 82.07 153.368 82.2216Z" fill="#39393B"/>
<path d="M126.727 86.9968C126.625 87.1484 123.821 91.1781 120.827 91.9108C120.815 91.8981 120.815 91.8981 120.815 91.8981C120.789 90.8497 120.802 89.8012 120.815 88.778C120.916 88.7906 123.771 88.8664 126.727 86.9968Z" fill="#39393B"/>
<path d="M126.108 76.4109C126.108 76.4109 121.888 67.4673 116.419 72.7097C111.909 77.0425 115.85 91.4938 123.682 88.3989L126.108 76.4109Z" fill="#EA9B7A"/>
<path d="M115.736 84.1292C113.286 84.9377 111.126 87.1105 110.57 89.8011C109.761 93.8182 112.364 97.7341 116.368 98.5552C120.385 99.3637 124.301 96.7615 125.122 92.7571C125.729 89.7506 124.427 86.7946 122.04 85.1651C121.244 84.6093 120.322 84.2177 119.311 84.0156C119.286 84.0156 119.261 84.0029 119.236 84.0029C119.097 84.5082 119.16 84.9125 119.438 85.2283C120.246 85.443 120.979 85.8093 121.623 86.2894C123.48 87.7042 124.478 90.0917 123.985 92.5297C123.303 95.9151 119.981 98.1131 116.595 97.431C113.21 96.7488 111.012 93.4266 111.694 90.0411C112.187 87.5778 114.018 85.8346 116.305 85.2788L115.736 84.1292Z" fill="#FAAF3A"/>
<path d="M123.354 85.9105C123.379 85.9105 123.392 85.9231 123.417 85.9231C123.745 85.9484 124.048 85.7084 124.074 85.3673C124.693 78.6091 119.589 75.1857 119.375 75.0468C119.097 74.8573 118.718 74.9457 118.528 75.2236C118.339 75.5015 118.427 75.8805 118.705 76.07C118.894 76.1963 123.417 79.2533 122.861 85.2662C122.848 85.5694 123.063 85.8473 123.354 85.9105Z" fill="#39393B"/>
<path d="M118.528 81.1733C118.654 81.1986 118.806 81.1859 118.932 81.1101C119.539 80.7943 121.32 80.0869 122.293 80.5543C122.596 80.7059 122.962 80.5796 123.101 80.2764C123.253 79.9732 123.126 79.6069 122.823 79.4679C121.13 78.6468 118.654 79.8974 118.377 80.0364C118.073 80.188 117.96 80.5543 118.124 80.8575C118.2 81.0217 118.364 81.1354 118.528 81.1733Z" fill="#39393B"/>
<path d="M131.539 61.2397C131.539 61.2397 125.868 76.6384 125.564 79.7459C125.147 83.9777 119.551 69.4759 125.173 57.0963L131.539 61.2397Z" fill="#39393B"/>
<path d="M226.306 387.707H202.949C202.949 387.707 197.543 361.786 195.736 347.258C193.917 332.719 192.983 298.271 192.983 298.271C192.983 298.271 174.375 304.322 135.417 302.035C49.1015 296.995 81.8316 233.581 81.8316 233.581C84.7496 237.611 106.629 243.156 118.831 245.089C156.311 248.689 184.797 255.056 204.301 263.469C209 265.49 213.169 267.638 216.832 269.899C221.531 272.791 224.475 281.596 226.256 293.155C231.574 327.906 226.306 387.707 226.306 387.707Z" fill="#39393B"/>
<path d="M205.842 375.226C205.451 375.226 205.109 374.948 205.021 374.557C201.648 357.882 200.524 337.128 199.614 320.453C198.857 306.621 198.149 293.559 196.368 291.993C194.928 290.717 188.953 291.715 181.399 292.965C166.354 295.466 143.616 299.231 118.553 293.407C104.898 290.224 94.8554 283.592 88.7161 273.688C78.1177 256.61 82.9558 235.425 83.0064 235.211C83.1074 234.756 83.5622 234.478 84.017 234.592C84.4717 234.693 84.7496 235.148 84.6359 235.602C84.5854 235.804 79.9241 256.332 90.1562 272.817C96.0555 282.329 105.744 288.708 118.945 291.778C143.692 297.538 166.227 293.799 181.146 291.323C190.077 289.845 195.471 288.948 197.505 290.742C199.703 292.687 200.322 302.237 201.307 320.365C202.217 336.989 203.341 357.667 206.688 374.228C206.777 374.683 206.486 375.125 206.032 375.214C205.956 375.214 205.905 375.226 205.842 375.226Z" fill="#585859"/>
<path d="M226.748 375.656H226.736L200.764 375.1C200.297 375.087 199.93 374.708 199.943 374.241C199.956 373.773 200.335 373.407 200.802 373.42L226.774 373.975C227.241 373.988 227.607 374.367 227.595 374.834C227.57 375.302 227.203 375.656 226.748 375.656Z" fill="#585859"/>
<path d="M225.662 417.633H209.177L206.006 398.293L204.263 387.707H224.74L225.068 398.293L225.662 417.633Z" fill="#EA9B7A"/>
<path d="M225.662 417.633H209.177L206.815 403.232L206.006 398.293H225.068L225.22 403.409L225.662 417.633Z" fill="#FAAF3A"/>
<path d="M225.22 403.409L206.815 403.232L206.006 398.293H225.068L225.22 403.409Z" fill="#C77E2E"/>
<path d="M266.338 443.668H203.985C203.518 442.821 203.265 441.634 203.164 440.206C202.772 434.926 204.453 426.513 205.274 421.208C205.375 420.589 205.463 420.007 205.526 419.49C205.64 418.605 205.716 417.86 205.716 417.317C205.716 412.984 209.543 413.729 209.543 413.729C215.847 419.919 222.997 410.647 227.165 413.679C227.165 413.679 227.33 413.805 227.721 414.096C228.075 414.373 228.605 414.803 229.338 415.422C230.399 416.306 231.89 417.595 233.911 419.414C238.863 423.873 247.276 426.804 254.438 429.797C255.348 430.176 256.194 430.555 256.99 430.947C257.584 431.238 258.152 431.528 258.683 431.806C264.544 434.964 266.401 437.996 266.831 440.194C267.247 442.303 266.338 443.668 266.338 443.668Z" fill="#0875F7"/>
<path d="M258.695 431.819C257.091 433.094 253.516 435.659 250.649 435.659C250.522 435.659 250.396 435.659 250.27 435.646C248.249 435.482 240.821 431.831 234.77 428.509C231.309 426.602 228.138 424.732 225.864 423.229C222.138 420.765 221.481 419.831 221.342 419.174C220.799 416.711 224.866 415.005 227.721 414.108C228.075 414.386 228.605 414.816 229.338 415.435C225.801 416.395 222.883 417.911 223.022 418.77C223.376 419.502 227.064 422.307 235.882 427.145C242.615 430.833 248.994 433.802 250.409 433.928C252.329 434.08 255.146 432.337 256.99 430.96C257.609 431.238 258.165 431.528 258.695 431.819Z" fill="#084FC7"/>
<path d="M266.338 443.668H203.985C203.518 442.821 203.265 441.634 203.164 440.206H266.843C267.247 442.303 266.338 443.668 266.338 443.668Z" fill="#084FC7"/>
<path d="M210.352 443.668H208.495C210.339 441.558 212.07 438.312 211.842 433.688C211.539 427.524 207.851 423.38 205.274 421.208C205.375 420.589 205.463 420.008 205.526 419.49C208.293 421.599 212.954 426.235 213.32 433.612C213.548 438.034 212.095 441.331 210.352 443.668Z" fill="#084FC7"/>
<path d="M232.875 423.102C232.42 423.102 231.991 422.787 231.877 422.319C231.738 421.763 232.079 421.208 232.622 421.069L236.513 420.096C237.069 419.957 237.625 420.298 237.764 420.841C237.903 421.397 237.562 421.953 237.018 422.092L233.128 423.065C233.039 423.09 232.951 423.102 232.875 423.102Z" fill="white"/>
<path d="M228.997 419.856C228.53 419.856 228.113 419.54 227.999 419.073C227.86 418.517 228.201 417.961 228.744 417.822L232.635 416.849C233.191 416.71 233.747 417.051 233.886 417.595C234.025 418.15 233.684 418.706 233.14 418.845L229.25 419.818C229.161 419.843 229.085 419.856 228.997 419.856Z" fill="white"/>
<path d="M236.766 425.364C236.311 425.364 235.882 425.048 235.768 424.58C235.629 424.025 235.97 423.469 236.513 423.342L240.404 422.37C240.96 422.231 241.516 422.572 241.654 423.115C241.793 423.671 241.452 424.227 240.909 424.366L237.018 425.338C236.93 425.351 236.842 425.364 236.766 425.364Z" fill="white"/>
<path d="M240.657 427.536C240.202 427.536 239.772 427.221 239.659 426.753C239.52 426.197 239.861 425.642 240.404 425.515L244.295 424.543C244.85 424.404 245.406 424.745 245.545 425.288C245.684 425.844 245.343 426.399 244.8 426.538L240.909 427.511C240.821 427.524 240.745 427.536 240.657 427.536Z" fill="white"/>
<path d="M244.901 429.545C244.446 429.545 244.017 429.229 243.903 428.762C243.764 428.206 244.105 427.65 244.648 427.524L248.539 426.551C249.095 426.412 249.651 426.753 249.79 427.296C249.929 427.852 249.588 428.408 249.044 428.547L245.154 429.52C245.065 429.545 244.989 429.545 244.901 429.545Z" fill="white"/>
<path d="M249.512 431.263C249.044 431.263 248.628 430.947 248.514 430.48C248.375 429.924 248.716 429.368 249.259 429.229L253.15 428.256C253.706 428.117 254.261 428.458 254.4 429.002C254.539 429.557 254.198 430.113 253.655 430.252L249.764 431.225C249.676 431.25 249.588 431.263 249.512 431.263Z" fill="white"/>
<path d="M312.332 232.646V237.826C312.332 240.807 310.538 243.22 308.315 243.22H28.5488C26.3256 243.22 24.5318 240.807 24.5318 237.826V232.646C24.5318 229.665 26.3256 227.252 28.5488 227.252H308.302C310.525 227.252 312.332 229.665 312.332 232.646Z" fill="#21B573"/>
<path d="M312.332 234.288H24.5318V236.663H312.332V234.288Z" fill="#217C58"/>
<path d="M303.919 256.521H40.9537C39.7789 256.521 38.8188 255.561 38.8188 254.386V243.144H306.054V254.386C306.054 255.561 305.094 256.521 303.919 256.521Z" fill="#217C58"/>
<path d="M292.108 322.512H56.9335V331.683H292.108V322.512Z" fill="#217C58"/>
<path d="M39.981 445.297L85.5076 256.521H69.5152L23.9886 445.297H39.981Z" fill="#21B573"/>
<path d="M308.757 445.297L263.218 256.521H279.21L324.737 445.297H308.757Z" fill="#21B573"/>
<path d="M50.0639 183.867L45.1315 184.623L50.8327 221.847L55.7651 221.091L50.0639 183.867Z" fill="#FAAF3A"/>
<path d="M50.0739 183.848L45.1473 184.606L46.2337 180.842L46.7895 178.884L47.9138 180.576L50.0739 183.848Z" fill="#EA9B7A"/>
<path d="M55.3462 218.382L50.4138 219.137L50.8288 221.847L55.7612 221.091L55.3462 218.382Z" fill="#39393B"/>
<path d="M55.7839 223.273L51.5016 223.93C51.3247 223.955 51.1479 223.829 51.1226 223.652L50.8447 221.82L55.7839 221.062L56.0618 222.894C56.0871 223.084 55.9608 223.248 55.7839 223.273Z" fill="#DF615C"/>
<path d="M47.914 180.576L46.2339 180.842L46.7898 178.884L47.914 180.576Z" fill="#39393B"/>
<path d="M55.0669 216.437L50.1346 217.192L50.431 219.128L55.3634 218.372L55.0669 216.437Z" fill="#C77E2E"/>
<path d="M46.6509 186.248L50.87 213.812C50.9079 214.026 51.0974 214.165 51.2995 214.128C51.5016 214.09 51.6532 213.9 51.6153 213.698L47.3961 186.135C47.3583 185.932 47.1688 185.781 46.9667 185.819C46.7645 185.844 46.613 186.046 46.6509 186.248Z" fill="#C77E2E"/>
<path d="M48.5836 185.957L52.8028 213.521C52.8407 213.723 53.0301 213.875 53.2322 213.837C53.447 213.799 53.586 213.609 53.5481 213.407L49.3289 185.844C49.291 185.642 49.1015 185.49 48.8994 185.528C48.6973 185.553 48.5457 185.743 48.5836 185.957Z" fill="#C77E2E"/>
<path d="M59.0069 184.018L54.0172 184.034L54.141 221.691L59.1308 221.675L59.0069 184.018Z" fill="#21B573"/>
<path d="M59.0052 184.025L54.0155 184.037L55.6451 180.475L56.4914 178.618L57.3504 180.462L59.0052 184.025Z" fill="#EA9B7A"/>
<path d="M59.115 218.946L54.1252 218.963L54.1343 221.704L59.124 221.688L59.115 218.946Z" fill="#39393B"/>
<path d="M58.8031 223.854L54.4702 223.867C54.2807 223.867 54.1418 223.715 54.1418 223.538V221.694L59.1315 221.681V223.526C59.1315 223.703 58.9926 223.854 58.8031 223.854Z" fill="#DF615C"/>
<path d="M57.3504 180.462L55.645 180.475L56.4914 178.618L57.3504 180.462Z" fill="#39393B"/>
<path d="M59.1036 216.976L54.1139 216.992L54.1203 218.95L59.1101 218.934L59.1036 216.976Z" fill="#217C58"/>
<path d="M55.2534 185.894L55.3418 213.774C55.3418 213.988 55.5187 214.153 55.7208 214.153C55.9356 214.153 56.0998 213.976 56.0998 213.774L56.0114 185.894C56.0114 185.68 55.8345 185.515 55.6324 185.515C55.4303 185.503 55.2534 185.68 55.2534 185.894Z" fill="#217C58"/>
<path d="M57.2114 185.882L57.2999 213.761C57.2999 213.976 57.4767 214.14 57.6788 214.14C57.8936 214.14 58.0578 213.963 58.0578 213.761L57.9694 185.882C57.9694 185.667 57.7925 185.503 57.5904 185.503C57.3883 185.503 57.2114 185.667 57.2114 185.882Z" fill="#217C58"/>
<path d="M62.6877 183.831L57.3931 221.115L62.3335 221.817L67.628 184.533L62.6877 183.831Z" fill="#0875F7"/>
<path d="M67.6203 184.555L62.6812 183.848L64.8034 180.551L65.915 178.846L66.4961 180.791L67.6203 184.555Z" fill="#EA9B7A"/>
<path d="M62.7306 219.137L57.7903 218.435L57.4049 221.149L62.3452 221.851L62.7306 219.137Z" fill="#39393B"/>
<path d="M61.6958 223.943L57.4135 223.336C57.2367 223.311 57.1103 223.147 57.1356 222.957L57.4009 221.126L62.3401 221.833L62.0748 223.665C62.0369 223.842 61.8727 223.968 61.6958 223.943Z" fill="#DF615C"/>
<path d="M66.496 180.791L64.8033 180.551L65.9149 178.846L66.496 180.791Z" fill="#39393B"/>
<path d="M58.0581 216.475L57.7826 218.414L62.7229 219.116L62.9984 217.177L58.0581 216.475Z" fill="#084FC7"/>
<path d="M63.6412 185.857L59.7252 213.458C59.6999 213.673 59.8389 213.862 60.0536 213.887C60.2684 213.913 60.4579 213.774 60.4831 213.559L64.3991 185.958C64.4244 185.743 64.2854 185.553 64.0707 185.528C63.8686 185.503 63.6791 185.654 63.6412 185.857Z" fill="#084FC7"/>
<path d="M65.5865 186.135L61.6705 213.736C61.6452 213.951 61.7842 214.14 61.9989 214.166C62.2137 214.191 62.4032 214.052 62.4284 213.837L66.3444 186.236C66.3697 186.021 66.2307 185.831 66.016 185.806C65.8012 185.781 65.6118 185.92 65.5865 186.135Z" fill="#084FC7"/>
<path d="M69.2498 198.918L68.9846 200.939L68.7445 202.771L68.3908 205.55L68.1508 207.369L67.7971 210.173L67.5571 211.967L67.1908 214.797L66.9634 216.565L66.5971 219.42L66.3697 221.163L66.0034 224.044L65.776 225.762L65.5865 227.252H45.956L45.7665 225.762L45.5392 224.044L45.1728 221.163L44.9454 219.42L44.5791 216.565L44.3517 214.797L43.9854 211.967L43.758 210.173L43.3917 207.369L43.1643 205.55L42.798 202.771L42.5579 200.939L42.3053 198.918H69.2498Z" fill="#DF615C"/>
<path d="M68.9846 200.939L68.7446 202.771H42.798L42.558 200.939H68.9846Z" fill="#B11722"/>
<path d="M68.3909 205.55L68.1508 207.369H43.3917L43.1643 205.55H68.3909Z" fill="#B11722"/>
<path d="M67.7971 210.174L67.5571 211.967H43.9854L43.758 210.174H67.7971Z" fill="#B11722"/>
<path d="M67.1908 214.797L66.9634 216.565H44.5791L44.3517 214.797H67.1908Z" fill="#B11722"/>
<path d="M66.5971 219.42L66.3697 221.163H45.1728L44.9454 219.42H66.5971Z" fill="#B11722"/>
<path d="M66.0034 224.044L65.7761 225.762H45.7666L45.5392 224.044H66.0034Z" fill="#B11722"/>
<path d="M310.702 127.142L293.965 197.933L293.522 199.79L292.398 204.552C291.906 206.624 290.074 208.077 287.952 208.077H175.184C172.228 208.077 170.055 205.323 170.737 202.455L189.041 125.033C189.534 122.973 191.366 121.521 193.488 121.521H306.243C309.199 121.521 311.372 124.275 310.702 127.142Z" fill="#39393B"/>
<path d="M293.952 197.92L293.522 199.79H176.434V197.92H293.952Z" fill="#585859"/>
<path d="M220.622 139.029C219.687 144.044 214.862 148.112 209.847 148.112C204.832 148.112 201.522 144.044 202.457 139.029C203.391 134.014 208.217 129.946 213.232 129.946C218.26 129.946 221.557 134.014 220.622 139.029Z" fill="#FAAF3A"/>
<path d="M210.365 137.298C210.175 138.296 209.67 139.117 209.24 139.117C208.798 139.117 208.596 138.309 208.785 137.298C208.975 136.3 209.48 135.479 209.91 135.479C210.352 135.479 210.554 136.288 210.365 137.298Z" fill="#39393B"/>
<path d="M215.102 137.298C214.912 138.296 214.407 139.117 213.977 139.117C213.548 139.117 213.333 138.309 213.523 137.298C213.712 136.3 214.217 135.479 214.647 135.479C215.089 135.479 215.291 136.288 215.102 137.298Z" fill="#39393B"/>
<path d="M210.794 143.463C206.891 143.463 206.726 139.559 206.726 139.522C206.714 139.307 206.891 139.092 207.118 139.054C207.345 139.004 207.522 139.143 207.535 139.357C207.535 139.496 207.686 142.68 210.958 142.68C214.217 142.68 215.556 139.496 215.62 139.357C215.708 139.143 215.948 139.016 216.15 139.054C216.352 139.105 216.453 139.307 216.365 139.522C216.327 139.547 214.697 143.463 210.794 143.463Z" fill="#39393B"/>
<path d="M272.755 181.448C272.856 186.147 280.814 192.034 280.814 192.034C280.814 192.034 290.061 186.147 291.185 181.448C292.398 176.357 286.587 174.791 282.28 178.631C278.806 174.791 272.641 176.357 272.755 181.448Z" fill="#DF615C"/>
<path d="M255.904 167.818C255.361 172.694 250.977 176.635 246.114 176.635C241.25 176.635 237.726 172.681 238.269 167.818C238.812 162.942 243.196 159 248.059 159C252.935 159 256.447 162.954 255.904 167.818Z" fill="#585859"/>
<path d="M197.96 121.521L178.468 208.077H175.184C172.228 208.077 170.055 205.323 170.737 202.455L189.041 125.032C189.534 122.973 191.366 121.508 193.488 121.508H197.96V121.521Z" fill="#585859"/>
<path d="M230.614 208.077L227.191 227.316H238.496L241.92 208.077H230.614Z" fill="white"/>
<path d="M210.289 224.006L212.6 220.76C213.421 219.597 214.761 218.915 216.188 218.915H247.162C248.804 218.915 250.308 219.825 251.066 221.278L252.619 224.259C253.352 225.648 252.341 227.328 250.762 227.328H211.994C210.289 227.316 209.303 225.383 210.289 224.006Z" fill="white"/>
<path d="M145.751 227.303H238.8L239.81 223.791C240.442 221.581 238.787 219.383 236.488 219.383H150.627C149.086 219.383 147.734 220.406 147.304 221.884L145.751 227.303Z" fill="white"/>
<path d="M267.753 98.4036L226.597 98.3784C225.005 98.3784 223.704 97.0773 223.704 95.4856L223.717 70.1959C223.717 68.6042 225.018 67.3031 226.61 67.3031L267.765 67.3284C269.357 67.3284 270.658 68.6295 270.658 70.2211L270.645 95.5109C270.645 97.1152 269.357 98.4036 267.753 98.4036Z" fill="#DF615C"/>
<path d="M265.302 93.7423L261.55 107.916L254.994 94.5887L265.302 93.7423Z" fill="#DF615C"/>
<path d="M257.584 80.5668C256.75 85.8724 246.834 92.5169 246.834 92.5169C246.834 92.5169 237.296 85.8597 236.753 80.5416C236.159 74.7813 242.981 73.0254 247.263 77.3709C251.773 73.038 258.493 74.8066 257.584 80.5668Z" fill="white"/>
<path d="M296.916 429.285C335.622 429.285 367 426.186 367 422.362C367 418.539 335.622 415.44 296.916 415.44C258.21 415.44 226.833 418.539 226.833 422.362C226.833 426.186 258.21 429.285 296.916 429.285Z" fill="#CED3E6"/>
<path d="M339.828 372.301H251.352C249.672 372.301 248.308 370.937 248.308 369.257V367.854C248.308 366.174 249.672 364.81 251.352 364.81H339.828C341.508 364.81 342.872 366.174 342.872 367.854V369.257C342.872 370.937 341.508 372.301 339.828 372.301Z" fill="#39393B"/>
<path d="M252.464 281.829H338.906C340.346 281.829 341.508 282.991 341.508 284.431V295.055C341.508 296.495 340.346 297.657 338.906 297.657H252.464C251.023 297.657 249.861 296.495 249.861 295.055V284.431C249.861 282.991 251.023 281.829 252.464 281.829Z" fill="#585859"/>
<path d="M272.877 214.499C272.877 214.499 236.433 207.299 226.264 181.87C216.095 156.442 253.285 137.367 272.877 151.022C293.847 165.625 272.877 214.499 272.877 214.499Z" fill="#21B573"/>
<path d="M294.554 281.311C294.238 281.311 293.948 281.071 293.897 280.743C290.411 257.12 276.326 223.14 265.146 198.797C253.007 172.396 241.562 151.325 241.448 151.111C241.271 150.795 241.398 150.391 241.714 150.214C242.029 150.037 242.434 150.163 242.61 150.479C242.724 150.694 254.194 171.802 266.359 198.241C277.589 222.672 291.712 256.779 295.224 280.553C295.274 280.919 295.034 281.248 294.668 281.298C294.617 281.298 294.579 281.311 294.554 281.311Z" fill="#39393B"/>
<path d="M271.513 212.036C271.273 212.036 271.046 211.91 270.932 211.695C255.079 182.173 229.334 160.749 229.081 160.534C228.803 160.307 228.766 159.89 228.993 159.612C229.22 159.334 229.637 159.296 229.915 159.524C230.18 159.739 256.114 181.314 272.094 211.076C272.271 211.392 272.145 211.796 271.829 211.973C271.715 212.011 271.614 212.036 271.513 212.036Z" fill="#39393B"/>
<path d="M272.233 214.158C272.044 214.158 271.867 214.082 271.728 213.931C260.169 200.326 248.32 191.862 240.425 187.163C231.86 182.072 225.961 180.165 225.911 180.152C225.57 180.038 225.367 179.672 225.481 179.318C225.595 178.977 225.961 178.775 226.315 178.889C226.555 178.965 232.391 180.834 241.069 186.001C249.066 190.751 261.054 199.315 272.738 213.072C272.978 213.35 272.94 213.766 272.663 214.006C272.536 214.108 272.372 214.158 272.233 214.158Z" fill="#39393B"/>
<path d="M269.024 206.415C268.746 206.415 268.494 206.238 268.405 205.973C259.512 179.887 262.784 148.193 262.822 147.877C262.86 147.511 263.188 147.258 263.542 147.296C263.908 147.334 264.161 147.662 264.123 148.016C264.085 148.332 260.851 179.748 269.643 205.543C269.757 205.884 269.58 206.263 269.226 206.377C269.163 206.402 269.088 206.415 269.024 206.415Z" fill="#39393B"/>
<path d="M271.26 211.581C270.944 211.581 270.667 211.354 270.616 211.025C267.9 194.515 269.984 181.049 272.22 172.661C274.646 163.553 277.677 158.425 277.804 158.21C277.993 157.894 278.398 157.793 278.713 157.983C279.029 158.172 279.13 158.576 278.941 158.892C278.915 158.943 275.858 164.109 273.484 173.065C271.298 181.314 269.252 194.578 271.917 210.823C271.98 211.177 271.728 211.518 271.374 211.581C271.323 211.568 271.286 211.581 271.26 211.581Z" fill="#39393B"/>
<path d="M311.317 221.144C311.317 221.144 348.127 216.103 359.787 191.332C371.447 166.547 335.445 145.312 315.082 157.78C293.278 171.12 311.317 221.144 311.317 221.144Z" fill="#21B573"/>
<path d="M297.359 279.151C296.992 279.151 296.689 278.848 296.702 278.481C296.841 266.316 299.493 252.459 304.584 237.3C308.652 225.186 314.26 212.213 321.284 198.747C333.221 175.819 345.247 159.157 345.374 158.993C345.588 158.702 346.005 158.627 346.296 158.841C346.586 159.056 346.662 159.473 346.447 159.764C346.334 159.928 334.358 176.527 322.459 199.366C311.494 220.424 298.356 251.234 298.041 278.494C298.015 278.86 297.725 279.151 297.359 279.151Z" fill="#39393B"/>
<path d="M312.871 218.769C312.757 218.769 312.631 218.744 312.53 218.668C312.214 218.478 312.126 218.074 312.315 217.758C330.025 188.995 357.197 168.985 357.475 168.783C357.766 168.568 358.183 168.632 358.397 168.922C358.612 169.213 358.549 169.63 358.258 169.844C357.993 170.046 331.023 189.904 313.452 218.44C313.313 218.655 313.098 218.769 312.871 218.769Z" fill="#39393B"/>
<path d="M312.025 220.841C311.86 220.841 311.696 220.777 311.57 220.664C311.305 220.411 311.292 219.994 311.545 219.729C324.038 206.68 336.506 198.848 344.767 194.578C353.736 189.942 359.661 188.414 359.913 188.35C360.267 188.262 360.621 188.477 360.709 188.83C360.798 189.184 360.583 189.538 360.229 189.626C360.166 189.639 354.166 191.193 345.323 195.766C337.163 199.985 324.846 207.741 312.492 220.638C312.378 220.765 312.201 220.841 312.025 220.841Z" fill="#39393B"/>
<path d="M315.688 213.299C315.599 213.299 315.524 213.287 315.435 213.249C315.094 213.11 314.943 212.731 315.069 212.39C325.377 187.15 324 155.608 323.987 155.292C323.975 154.926 324.253 154.622 324.619 154.597C324.973 154.572 325.288 154.863 325.314 155.229C325.326 155.545 326.716 187.378 316.307 212.895C316.193 213.148 315.953 213.299 315.688 213.299Z" fill="#39393B"/>
<path d="M313.149 218.327C313.098 218.327 313.048 218.327 312.997 218.314C312.644 218.238 312.416 217.885 312.505 217.531C316.143 201.463 314.879 188.11 313.187 179.748C311.342 170.678 308.614 165.334 308.589 165.271C308.424 164.943 308.551 164.551 308.867 164.387C309.195 164.223 309.587 164.349 309.751 164.665C309.864 164.88 312.58 170.185 314.463 179.432C316.193 187.946 317.482 201.513 313.793 217.821C313.73 218.112 313.452 218.327 313.149 218.327Z" fill="#39393B"/>
<path d="M297.144 173.192C297.144 173.192 265.955 153.005 265.917 125.619C265.879 98.232 307.49 94.2907 320.64 114.224C334.725 135.56 297.144 173.192 297.144 173.192Z" fill="#21B573"/>
<path d="M292.786 243.313C292.735 243.313 292.685 243.313 292.634 243.301C292.28 243.212 292.066 242.859 292.141 242.505C297.649 219.274 297.156 182.489 295.779 155.734C294.289 126.718 291.447 102.893 291.421 102.666C291.383 102.3 291.636 101.971 292.002 101.933C292.356 101.896 292.697 102.148 292.735 102.515C292.76 102.755 295.603 126.617 297.106 155.671C298.495 182.514 298.975 219.426 293.442 242.808C293.354 243.111 293.089 243.313 292.786 243.313Z" fill="#39393B"/>
<path d="M297.03 170.45C296.702 170.45 296.411 170.198 296.373 169.869C292.584 136.571 276.604 107.138 276.44 106.847C276.263 106.531 276.376 106.127 276.705 105.95C277.021 105.773 277.425 105.887 277.602 106.215C277.766 106.506 293.872 136.166 297.687 169.73C297.725 170.097 297.472 170.425 297.106 170.463C297.081 170.45 297.055 170.45 297.03 170.45Z" fill="#39393B"/>
<path d="M296.916 172.674C296.638 172.674 296.386 172.497 296.297 172.219C290.6 155.292 282.73 143.051 277.134 135.762C271.071 127.855 266.296 123.913 266.245 123.875C265.967 123.648 265.917 123.231 266.157 122.953C266.384 122.675 266.801 122.625 267.079 122.865C267.281 123.029 271.993 126.92 278.145 134.929C283.817 142.306 291.775 154.685 297.535 171.802C297.649 172.143 297.472 172.522 297.118 172.636C297.055 172.661 296.992 172.674 296.916 172.674Z" fill="#39393B"/>
<path d="M296.803 164.299C296.79 164.299 296.777 164.299 296.765 164.299C296.398 164.286 296.121 163.97 296.146 163.604C297.548 136.091 312.328 107.858 312.467 107.567C312.643 107.239 313.035 107.125 313.364 107.289C313.692 107.454 313.806 107.858 313.642 108.186C313.49 108.464 298.849 136.444 297.472 163.667C297.447 164.021 297.156 164.299 296.803 164.299Z" fill="#39393B"/>
<path d="M296.967 169.92C296.916 169.92 296.879 169.92 296.828 169.907C296.474 169.831 296.247 169.478 296.323 169.124C299.91 152.778 306.858 140.954 312.062 133.905C317.709 126.25 322.434 122.524 322.636 122.372C322.926 122.145 323.343 122.195 323.558 122.486C323.785 122.776 323.735 123.193 323.444 123.408C323.394 123.446 318.631 127.21 313.086 134.727C307.97 141.662 301.136 153.309 297.611 169.402C297.548 169.718 297.27 169.92 296.967 169.92Z" fill="#39393B"/>
<path d="M335.255 239.776L334.169 242.656L333.487 244.488L331.516 249.718L330.821 251.549L328.8 256.931L328.118 258.75L319.427 281.816H271.955L263.264 258.75L262.582 256.931L260.561 251.549L259.866 249.718L257.895 244.488L257.213 242.656L256.127 239.776C255.382 237.793 256.847 235.683 258.957 235.683H332.438C334.535 235.683 336.001 237.793 335.255 239.776Z" fill="#0875F7"/>
<path d="M334.169 242.656L333.487 244.488H257.895L257.201 242.656H334.169Z" fill="#084FC7"/>
<path d="M331.503 249.718L330.821 251.549H260.548L259.866 249.718H331.503Z" fill="#084FC7"/>
<path d="M328.788 256.931L328.105 258.75H263.264L262.582 256.931H328.788Z" fill="#084FC7"/>
<path d="M282.97 297.644L280.343 306.133L243.697 424.244H236.534L259.765 308.546L261.963 297.644H282.97Z" fill="#39393B"/>
<path d="M355.05 424.244H347.887L310.168 302.634L308.614 297.644H329.621L330.152 300.297L355.05 424.244Z" fill="#39393B"/>
<path d="M339.828 356.018H251.352C249.672 356.018 248.308 354.654 248.308 352.974V351.571C248.308 349.891 249.672 348.527 251.352 348.527H339.815C341.496 348.527 342.86 349.891 342.86 351.571V352.974C342.872 354.654 341.508 356.018 339.828 356.018Z" fill="#585859"/>
<path d="M228.386 72.0542C247.307 72.0542 262.645 56.9084 262.645 38.2251C262.645 19.5418 247.307 4.396 228.386 4.396C209.466 4.396 194.128 19.5418 194.128 38.2251C194.128 56.9084 209.466 72.0542 228.386 72.0542Z" fill="#CED3E6"/>
<path d="M228.386 67.6582C247.307 67.6582 262.645 52.5124 262.645 33.8291C262.645 15.1458 247.307 0 228.386 0C209.466 0 194.127 15.1458 194.127 33.8291C194.127 52.5124 209.466 67.6582 228.386 67.6582Z" fill="#0875F7"/>
<path d="M228.386 61.3296C243.762 61.3296 256.228 49.0172 256.228 33.8292C256.228 18.6412 243.762 6.32886 228.386 6.32886C213.01 6.32886 200.545 18.6412 200.545 33.8292C200.545 49.0172 213.01 61.3296 228.386 61.3296Z" fill="white"/>
<path d="M256.228 33.8292C256.228 34.5619 256.202 35.2819 256.139 36.002C255.015 21.8539 242.989 10.6743 228.373 10.6743C213.758 10.6743 201.745 21.8539 200.608 36.002C200.557 35.2819 200.519 34.5619 200.519 33.8292C200.519 18.6579 213.013 6.32886 228.361 6.32886C243.734 6.32886 256.228 18.6579 256.228 33.8292Z" fill="#CED3E6"/>
<path d="M228.386 36.6839C228.171 36.6839 227.957 36.5829 227.83 36.406L214.175 18.2409C213.947 17.9377 214.011 17.5082 214.314 17.2808C214.617 17.0534 215.059 17.1166 215.286 17.4198L228.613 35.1428L243.759 28.574C244.113 28.4224 244.517 28.574 244.682 28.9277C244.833 29.2814 244.682 29.6857 244.328 29.8373L228.677 36.6208C228.576 36.6713 228.475 36.6839 228.386 36.6839Z" fill="#39393B"/>
</svg>
